<svg width="19" height="21" viewBox="0 0 19 21" fill="none" xmlns="http://www.w3.org/2000/svg">
<path d="M5.21422 5.16777C5.24259 4.60857 5.22719 4.08852 5.30337 3.57886C5.58786 1.66722 7.30772 0.238881 9.27479 0.250065C11.2419 0.261249 12.9317 1.6824 13.2114 3.58365C13.2859 4.09332 13.2721 4.61417 13.3013 5.16777H14.9012C15.2157 5.16777 15.5294 5.16297 15.8438 5.16777C16.2402 5.17496 16.395 5.30038 16.4485 5.68941C16.6695 7.2919 16.8856 8.89466 17.0969 10.4977C17.4124 12.841 17.7269 15.1858 18.0403 17.5323C18.1067 18.0276 18.1764 18.5213 18.2421 19.0166C18.2526 19.0857 18.2526 19.156 18.2421 19.2251C18.1764 19.5782 17.3651 20.25 17.002 20.25C11.8343 20.25 6.66635 20.2465 1.49811 20.2396C1.30359 20.2396 1.07016 20.1174 0.921844 19.9808C0.0481317 19.1748 0.229684 19.4008 0.360984 18.3831C0.685181 15.8883 1.02154 13.3951 1.35384 10.9019C1.58348 9.1897 1.81447 7.47857 2.04681 5.7685C2.11408 5.27561 2.25186 5.16857 2.77058 5.16777H5.21422ZM15.5286 6.13997C15.4378 6.13357 15.3973 6.12718 15.3575 6.12718C11.3164 6.12718 7.27477 6.12505 3.23256 6.12079C2.98941 6.12079 2.95862 6.23583 2.9343 6.42435C2.68305 8.3336 2.42828 10.2428 2.17 12.1521C1.87823 14.3281 1.58699 16.5042 1.29629 18.6803C1.24118 19.0989 1.42111 19.293 1.84337 19.293H16.6754C17.0807 19.293 17.2695 19.0893 17.2193 18.7002C17.0969 17.7504 16.9672 16.8014 16.8399 15.8515C16.4806 13.1711 16.121 10.4908 15.7612 7.81035C15.6842 7.25675 15.6064 6.70555 15.5286 6.13997ZM6.22977 5.1422H12.3085C12.3085 4.77793 12.319 4.43123 12.3085 4.08533C12.2873 3.46815 12.072 2.87272 11.6925 2.3814C11.3129 1.89009 10.7878 1.52718 10.1898 1.34289C9.59206 1.15943 8.95155 1.16134 8.35491 1.34836C7.75827 1.53538 7.2343 1.89849 6.85385 2.38858C6.20707 3.2082 6.18033 4.15243 6.22977 5.1422Z" fill="white" stroke="white" stroke-width="0.5"/>
</svg>
